<?xml version="1.0" encoding="UTF-8" standalone="no"?>
<!-- Created with Inkscape (http://www.inkscape.org/) -->

<svg
   xmlns:dc="http://purl.org/dc/elements/1.1/"
   xmlns:cc="http://creativecommons.org/ns#"
   xmlns:rdf="http://www.w3.org/1999/02/22-rdf-syntax-ns#"
   xmlns:svg="http://www.w3.org/2000/svg"
   xmlns="http://www.w3.org/2000/svg"
   xmlns:sodipodi="http://sodipodi.sourceforge.net/DTD/sodipodi-0.dtd"
   xmlns:inkscape="http://www.inkscape.org/namespaces/inkscape"
   width="453.5433"
   height="340.15747"
   id="svg2"
   sodipodi:version="0.32"
   inkscape:version="0.48.5 r10040"
   sodipodi:docname="gopher.svg"
   version="1.0">
  <defs
     id="defs4" />
  <sodipodi:namedview
     id="base"
     pagecolor="#ffffff"
     bordercolor="#666666"
     borderopacity="1.0"
     inkscape:pageopacity="0.0"
     inkscape:pageshadow="2"
     inkscape:zoom="1.540463"
     inkscape:cx="237.78616"
     inkscape:cy="98.111711"
     inkscape:document-units="mm"
     inkscape:current-layer="layer1"
     inkscape:window-width="1280"
     inkscape:window-height="800"
     inkscape:window-x="-2"
     inkscape:window-y="55"
     width="12.8cm"
     height="9.6cm"
     units="cm"
     showgrid="true"
     grid_units="mm"
     inkscape:object-paths="false"
     inkscape:grid-points="true"
     inkscape:grid-bbox="true"
     inkscape:guide-points="true"
     showguides="true"
     inkscape:guide-bbox="true"
     inkscape:window-maximized="0">
    <sodipodi:guide
       orientation="vertical"
       position="56.476527"
       id="guide3573" />
    <sodipodi:guide
       orientation="horizontal"
       position="11.035643"
       id="guide3579" />
    <sodipodi:guide
       orientation="horizontal"
       position="24.018753"
       id="guide3886" />
    <sodipodi:guide
       orientation="horizontal"
       position="285.62841"
       id="guide3988" />
    <sodipodi:guide
       orientation="horizontal"
       position="303.15561"
       id="guide4081" />
    <inkscape:grid
       id="GridFromPre046Settings"
       type="xygrid"
       originx="0px"
       originy="0px"
       spacingx="2mm"
       spacingy="2mm"
       color="#3f3fff"
       empcolor="#3f3fff"
       opacity="0.15"
       empopacity="0.38"
       empspacing="5" />
  </sodipodi:namedview>
  <metadata
     id="metadata7">
    <rdf:RDF>
      <cc:Work
         rdf:about="">
        <dc:format>image/svg+xml</dc:format>
        <dc:type
           rdf:resource="http://purl.org/dc/dcmitype/StillImage" />
        <dc:title />
      </cc:Work>
    </rdf:RDF>
  </metadata>
  <g
     inkscape:label="Layer 1"
     inkscape:groupmode="layer"
     id="layer1"
     transform="translate(4.149475e-6,-698.0315)">
    <g
       id="g12"
       transform="matrix(0.08,0,0,-0.08,336.92282,1020.609)">
      <path
         inkscape:connector-curvature="0"
         d="m 25.1602,793.25 c 2.4609,-50.391 52.8086,-27.07 75.6208,-11.328 21.641,15 27.969,2.539 29.879,32.066 1.219,19.422 3.481,38.793 2.391,58.293 -32.742,2.957 -68.3596,-4.812 -95.1994,-24.34 C 24.0195,837.898 -1.87891,805.828 25.1602,793.25"
         style="fill:#f6d2a2;fill-opacity:1;fill-rule:evenodd;stroke:none"
         id="path14" />
      <path
         inkscape:connector-curvature="0"
         d="m 25.1602,793.25 c 2.4609,-50.391 52.8086,-27.07 75.6208,-11.332 21.641,15 27.969,2.543 29.879,32.07 1.219,19.422 3.481,38.793 2.391,58.293 -32.742,2.957 -68.3596,-4.812 -95.1994,-24.34 C 24.0195,837.898 -1.87891,805.828 25.1602,793.25"
         style="fill:none;stroke:#000000;stroke-width:9.60000038;stroke-linecap:round;stroke-linejoin:miter;stroke-miterlimit:4;stroke-opacity:1;stroke-dasharray:none"
         id="path16" />
      <path
         inkscape:connector-curvature="0"
         d="m 25.1602,793.25 c 7.3398,2.738 15.1093,4.691 20.0703,11.328"
         style="fill:#c6b198;fill-opacity:1;fill-rule:evenodd;stroke:none"
         id="path18" />
      <path
         inkscape:connector-curvature="0"
         d="m 25.1602,793.25 c 7.3398,2.738 15.1093,4.691 20.0703,11.328"
         style="fill:none;stroke:#000000;stroke-width:9.60000038;stroke-linecap:round;stroke-linejoin:miter;stroke-miterlimit:4;stroke-opacity:1;stroke-dasharray:none"
         id="path20" />
      <path
         inkscape:connector-curvature="0"
         d="m 141.52,1393.72 c -192.9302,54.26 -49.4497,299.73 105.468,198.75 L 141.52,1393.72 z"
         style="fill:#6ad7e5;fill-opacity:1;fill-rule:evenodd;stroke:none"
         id="path22" />
      <path
         inkscape:connector-curvature="0"
         d="m 141.52,1393.72 c -192.9302,54.26 -49.4497,299.73 105.468,198.75 L 141.52,1393.72 z"
         style="fill:none;stroke:#000000;stroke-width:9.60000038;stroke-linecap:round;stroke-linejoin:miter;stroke-miterlimit:4;stroke-opacity:1;stroke-dasharray:none"
         id="path24" />
      <path
         inkscape:connector-curvature="0"
         d="m 998.789,1610.91 c 152.731,107.26 290.741,-134.77 113.241,-195.67 l -113.241,195.67 z"
         style="fill:#6ad7e5;fill-opacity:1;fill-rule:evenodd;stroke:none"
         id="path26" />
      <path
         inkscape:connector-curvature="0"
         d="m 998.789,1610.91 c 152.731,107.26 290.741,-134.77 113.241,-195.67 l -113.241,195.67 z"
         style="fill:none;stroke:#000000;stroke-width:9.60000038;stroke-linecap:round;stroke-linejoin:miter;stroke-miterlimit:4;stroke-opacity:1;stroke-dasharray:none"
         id="path28" />
      <path
         inkscape:connector-curvature="0"
         d="m 1031.64,172.941 c 38.83,-23.98 109.73,-96.5621 51.52,-131.7613 -55.89,-51.2109 -87.219,56.1719 -136.281,71.0583 21.133,28.711 47.922,54.883 84.761,60.703 z"
         style="fill:#f6d2a2;fill-opacity:1;fill-rule:evenodd;stroke:none"
         id="path30" />
      <path
         inkscape:connector-curvature="0"
         d="m 1031.64,172.941 c 38.83,-23.98 109.73,-96.5621 51.52,-131.7613 -55.89,-51.2109 -87.219,56.1719 -136.281,71.1013 21.133,28.668 47.922,54.84 84.761,60.66 z"
         style="fill:none;stroke:#000000;stroke-width:9.60000038;stroke-linecap:round;stroke-linejoin:miter;stroke-miterlimit:4;stroke-opacity:1;stroke-dasharray:none"
         id="path32" />
      <path
         inkscape:connector-curvature="0"
         d="m 1083.16,41.1797 c -8.63,17.1484 -11.52,37.1484 -25.93,50.9805"
         style="fill:none;stroke:#000000;stroke-width:9.60000038;stroke-linecap:round;stroke-linejoin:miter;stroke-miterlimit:4;stroke-opacity:1;stroke-dasharray:none"
         id="path34" />
      <path
         inkscape:connector-curvature="0"
         d="M 338.59,90.9102 C 293.051,83.8789 267.422,42.7812 229.449,21.9219 193.711,0.601562 180,28.7617 176.801,34.5 c -5.629,2.5391 -5.16,-2.4219 -13.789,6.3281 -33.172,52.3008 34.57,90.5939 69.797,116.5629 49.101,9.918 79.89,-32.653 105.781,-66.4808 z"
         style="fill:#f6d2a2;fill-opacity:1;fill-rule:evenodd;stroke:none"
         id="path36" />
      <path
         inkscape:connector-curvature="0"
         d="M 338.59,90.9492 C 293.051,83.8789 267.422,42.7812 229.449,21.9219 193.711,0.601562 180,28.7617 176.801,34.5 c -5.629,2.5391 -5.16,-2.4219 -13.789,6.3281 -33.172,52.3125 34.57,90.5939 69.797,116.5629 49.101,9.918 79.89,-32.61 105.781,-66.4418 z"
         style="fill:none;stroke:#000000;stroke-width:9.60000038;stroke-linecap:round;stroke-linejoin:miter;stroke-miterlimit:4;stroke-opacity:1;stroke-dasharray:none"
         id="path38" />
      <path
         inkscape:connector-curvature="0"
         d="m 176.801,34.5 c 1.719,19.9219 17.539,33.2812 25.078,50.1602"
         style="fill:none;stroke:#000000;stroke-width:9.60000038;stroke-linecap:round;stroke-linejoin:miter;stroke-miterlimit:4;stroke-opacity:1;stroke-dasharray:none"
         id="path40" />
      <path
         inkscape:connector-curvature="0"
         d="m 149.57,1461.53 c -25.429,13.44 -44.101,31.72 -28.55,61.18 14.41,27.26 41.21,24.29 66.64,10.82 l -38.09,-72 z"
         style="fill:#000000;fill-opacity:1;fill-rule:evenodd;stroke:none"
         id="path42" />
      <path
         inkscape:connector-curvature="0"
         d="m 1071.84,1487.12 c 25.43,13.48 44.14,31.76 28.55,61.21 -14.41,27.23 -41.21,24.3 -66.64,10.82 l 38.09,-72.03 z"
         style="fill:#000000;fill-opacity:1;fill-rule:evenodd;stroke:none"
         id="path44" />
      <path
         inkscape:connector-curvature="0"
         d="m 1247.07,799.66 c -2.46,-50.39 -52.81,-27.07 -75.62,-11.332 -21.65,14.961 -27.97,2.543 -29.89,32.07 -1.25,19.411 -3.47,38.793 -2.34,58.282 32.73,2.968 68.32,-4.801 95.16,-24.328 13.82,-10.043 39.76,-42.114 12.69,-54.692"
         style="fill:#f6d2a2;fill-opacity:1;fill-rule:evenodd;stroke:none"
         id="path46" />
      <path
         inkscape:connector-curvature="0"
         d="m 1247.07,799.66 c -2.46,-50.39 -52.81,-27.07 -75.62,-11.332 -21.65,14.961 -27.97,2.543 -29.89,32.07 -1.25,19.411 -3.47,38.832 -2.34,58.282 32.73,2.968 68.32,-4.801 95.16,-24.301 13.82,-10.07 39.76,-42.098 12.69,-54.719"
         style="fill:none;stroke:#000000;stroke-width:9.60000038;stroke-linecap:round;stroke-linejoin:miter;stroke-miterlimit:4;stroke-opacity:1;stroke-dasharray:none"
         id="path48" />
      <path
         inkscape:connector-curvature="0"
         d="m 1247.07,799.66 c -7.34,2.731 -15.12,4.692 -20.08,11.289"
         style="fill:#c6b198;fill-opacity:1;fill-rule:evenodd;stroke:none"
         id="path50" />
      <path
         inkscape:connector-curvature="0"
         d="m 1247.07,799.66 c -7.34,2.731 -15.12,4.692 -20.08,11.289"
         style="fill:none;stroke:#000000;stroke-width:9.60000038;stroke-linecap:round;stroke-linejoin:miter;stroke-miterlimit:4;stroke-opacity:1;stroke-dasharray:none"
         id="path52" />
      <path
         inkscape:connector-curvature="0"
         d="m 616.801,1712.86 c 193.16,0 374.219,-27.65 468.629,-213.2 84.73,-208.05 54.61,-432.35 67.54,-652.191 11.09,-188.789 35.66,-406.867 -51.88,-581.797 C 1008.95,81.6094 778.75,35.3203 589.059,42.0781 440.082,47.4297 260.121,96.0312 176.051,232.16 77.4219,391.809 124.102,629.27 131.289,806.922 c 8.481,210.468 -57.0273,421.568 12.109,627.538 71.762,213.64 265.192,261.92 473.403,278.4"
         style="fill:#6ad7e5;fill-opacity:1;fill-rule:evenodd;stroke:none"
         id="path54" />
      <path
         inkscape:connector-curvature="0"
         d="m 616.801,1712.86 c 193.16,0 374.219,-27.65 468.629,-213.2 84.73,-208.05 54.61,-432.35 67.54,-652.191 11.09,-188.789 35.66,-406.867 -51.88,-581.801 C 1008.95,81.6094 778.75,35.3203 589.059,42.0781 440.082,47.4297 260.121,96.0312 176.051,232.16 77.4219,391.809 124.102,629.27 131.289,806.918 c 8.481,210.472 -57.0273,421.572 12.109,627.542 71.762,213.64 265.192,261.92 473.403,278.4"
         style="fill:none;stroke:#000000;stroke-width:9.60000038;stroke-linecap:round;stroke-linejoin:miter;stroke-miterlimit:4;stroke-opacity:1;stroke-dasharray:none"
         id="path56" />
      <path
         inkscape:connector-curvature="0"
         d="m 650.859,1453.53 c 34.692,-201.61 364.261,-148.29 316.911,55.03 -42.461,182.35 -328.391,131.88 -316.911,-55.03"
         style="fill:#ffffff;fill-opacity:1;fill-rule:evenodd;stroke:none"
         id="path58" />
      <path
         inkscape:connector-curvature="0"
         d="m 650.859,1453.53 c 34.692,-201.61 364.261,-148.29 316.911,55.03 -42.461,182.35 -328.391,131.88 -316.911,-55.03"
         style="fill:none;stroke:#000000;stroke-width:9.30591965;stroke-linecap:round;stroke-linejoin:miter;stroke-miterlimit:4;stroke-opacity:1;stroke-dasharray:none"
         id="path60" />
      <path
         inkscape:connector-curvature="0"
         d="m 257.07,1420.91 c 44.961,-175.51 325.981,-130.55 315.352,45.51 -12.652,210.86 -358.32,170.15 -315.352,-45.51"
         style="fill:#ffffff;fill-opacity:1;fill-rule:evenodd;stroke:none"
         id="path62" />
      <path
         inkscape:connector-curvature="0"
         d="m 257.07,1420.95 c 44.961,-175.55 325.981,-130.59 315.352,45.47 -12.652,210.86 -358.32,170.15 -315.352,-45.47"
         style="fill:none;stroke:#000000;stroke-width:9.02847958;stroke-linecap:round;stroke-linejoin:miter;stroke-miterlimit:4;stroke-opacity:1;stroke-dasharray:none"
         id="path64" />
      <path
         inkscape:connector-curvature="0"
         d="m 690.621,1211.61 c 0.16,-26.21 5.981,-55.62 1.02,-83.51 -6.68,-12.66 -19.801,-13.99 -31.129,-19.11 -15.672,2.47 -28.793,12.74 -35.082,27.39 -4.02,31.83 1.48,62.61 2.5,94.45 l 62.691,-19.22 z"
         style="fill:#ffffff;fill-opacity:1;fill-rule:evenodd;stroke:none"
         id="path66" />
      <path
         inkscape:connector-curvature="0"
         d="m 690.621,1211.61 c 0.16,-26.21 5.981,-55.62 1.02,-83.51 -6.68,-12.66 -19.801,-13.99 -31.129,-19.11 -15.672,2.47 -28.793,12.74 -35.082,27.39 -4.02,31.83 1.48,62.61 2.5,94.45 l 62.691,-19.22 z"
         style="fill:none;stroke:#000000;stroke-width:9.60000038;stroke-linecap:round;stroke-linejoin:miter;stroke-miterlimit:4;stroke-opacity:1;stroke-dasharray:none"
         id="path68" />
      <path
         inkscape:connector-curvature="0"
         d="m 382.031,1449.54 c 0,-28.36 -21.25,-51.37 -47.461,-51.37 -26.211,0 -47.461,23.01 -47.461,51.37 0,28.4 21.25,51.41 47.461,51.41 26.211,0 47.461,-23.01 47.461,-51.41 z"
         style="fill:#000000;fill-opacity:1;fill-rule:evenodd;stroke:none"
         id="path70" />
      <path
         inkscape:connector-curvature="0"
         d="m 367.34,1437.94 c 0,-7.19 -5,-13.05 -11.168,-13.05 -6.172,0 -11.211,5.86 -11.211,13.05 0,7.23 5.039,13.09 11.211,13.09 6.168,0 11.168,-5.86 11.168,-13.09 z"
         style="fill:#ffffff;fill-opacity:1;fill-rule:evenodd;stroke:none"
         id="path72" />
      <path
         inkscape:connector-curvature="0"
         d="m 778.832,1462.35 c 0,-28.39 -20.902,-51.4 -46.641,-51.4 -25.781,0 -46.679,23.01 -46.679,51.4 0,28.4 20.898,51.41 46.679,51.41 25.739,0 46.641,-23.01 46.641,-51.41 z"
         style="fill:#000000;fill-opacity:1;fill-rule:evenodd;stroke:none"
         id="path74" />
      <path
         inkscape:connector-curvature="0"
         d="m 764.379,1450.75 c 0,-7.22 -4.93,-13.04 -10.981,-13.04 -6.097,0 -11.019,5.82 -11.019,13.04 0,7.23 4.922,13.05 11.019,13.05 6.051,0 10.981,-5.82 10.981,-13.05 z"
         style="fill:#ffffff;fill-opacity:1;fill-rule:evenodd;stroke:none"
         id="path76" />
      <path
         inkscape:connector-curvature="0"
         d="m 555.039,1214.46 c -20.699,-50.19 11.52,-150.5 67.691,-76.52 -3.98,31.84 1.532,62.66 2.54,94.49 l -70.231,-17.97 z"
         style="fill:#ffffff;fill-opacity:1;fill-rule:evenodd;stroke:none"
         id="path78" />
      <path
         inkscape:connector-curvature="0"
         d="m 555.039,1214.46 c -20.699,-50.19 11.52,-150.5 67.691,-76.52 -3.98,31.84 1.532,62.66 2.54,94.49 l -70.231,-17.97 z"
         style="fill:none;stroke:#000000;stroke-width:9.60000038;stroke-linecap:round;stroke-linejoin:miter;stroke-miterlimit:4;stroke-opacity:1;stroke-dasharray:none"
         id="path80" />
      <path
         inkscape:connector-curvature="0"
         d="m 562.109,1311.1 c -38.589,-3.32 -70.121,-49.18 -50.078,-85.47 26.598,-48.08 85.899,4.26 122.809,-0.66 42.539,-0.86 77.351,-44.96 111.531,-7.97 37.969,41.13 -16.371,81.21 -58.832,99.1 l -125.43,-5 z"
         style="fill:#f6d2a2;fill-opacity:1;fill-rule:evenodd;stroke:none"
         id="path82" />
      <path
         inkscape:connector-curvature="0"
         d="m 562.109,1311.1 c -38.589,-3.32 -70.121,-49.18 -50.078,-85.46 26.598,-48.09 85.899,4.25 122.809,-0.67 42.539,-0.86 77.351,-44.96 111.531,-7.97 37.969,41.14 -16.371,81.21 -58.832,99.1 l -125.43,-5 z"
         style="fill:none;stroke:#231f20;stroke-width:9.60000038;stroke-linecap:round;stroke-linejoin:miter;stroke-miterlimit:4;stroke-opacity:1;stroke-dasharray:none"
         id="path84" />
      <path
         inkscape:connector-curvature="0"
         d="m 557.27,1313.1 c -2.86,66.87 124.609,75.23 139.64,19.25 15.039,-55.82 -133.39,-68.79 -139.64,-19.25 -5,39.57 0,0 0,0 z"
         style="fill:#000000;fill-opacity:1;fill-rule:evenodd;stroke:none"
         id="path86" />
    </g>
  </g>
</svg>
