<?xml version="1.0" encoding="UTF-8" standalone="no"?>
<!-- Created with Inkscape (http://www.inkscape.org/) -->

<svg
   xmlns:dc="http://purl.org/dc/elements/1.1/"
   xmlns:cc="http://creativecommons.org/ns#"
   xmlns:rdf="http://www.w3.org/1999/02/22-rdf-syntax-ns#"
   xmlns:svg="http://www.w3.org/2000/svg"
   xmlns="http://www.w3.org/2000/svg"
   xmlns:sodipodi="http://sodipodi.sourceforge.net/DTD/sodipodi-0.dtd"
   xmlns:inkscape="http://www.inkscape.org/namespaces/inkscape"
   width="453.5433"
   height="340.15747"
   id="svg2"
   sodipodi:version="0.32"
   inkscape:version="0.48.5 r10040"
   sodipodi:docname="slamd.svg"
   version="1.0">
  <defs
     id="defs4">
    <clipPath
       id="clipPath4013"
       clipPathUnits="userSpaceOnUse">
      <path
         id="path4015"
         d="M 0,10581.9 0,0 l 8706.98,0 0,10581.9 -8706.98,0 z" />
    </clipPath>
    <clipPath
       id="clipPath4003"
       clipPathUnits="userSpaceOnUse">
      <path
         id="path4005"
         d="m 2001.99,8658.2 c 50,200.63 411.54,153.08 411.54,153.08 9.34,189.73 -81.33,570.13 -60.54,770.11 11.02,106.07 66.37,217.61 158.99,321.78 343.68,386.53 1230.58,590.23 1378.24,590.23 98.45,0 98.45,-147.6 172.28,-118.1 0,0 172.29,118.1 246.12,147.6 393.79,88.5 762.96,59 1156.75,29.5 319.94,-29.5 713.73,59 1009.06,-59 101.63,-61 168.29,-135.9 240.09,-195.9 21.62,-18.1 -22.84,-125.6 -22.84,-125.6 0,0 114.45,62 127.31,55.9 17.68,-15.9 41.7,-29.9 69.65,-42.5 127.73,-57.6 337.4,-86.2 397.98,-134.6 172.28,-118.02 443.01,-855.78 541.45,-1121.37 20.82,-54.92 -70.65,-268.49 -70.65,-268.49 0,0 161.99,108.5 174.26,71.06 76.73,-234.22 131.86,-552.26 167.12,-805.92 57.93,-611.37 6.75,-1229.28 -73.92,-1844.5 -4.47,-34.09 -93.2,-139.58 -93.2,-139.58 0,0 73.25,-8.49 70.07,-31.4 -88.11,-633.8 -199.72,-1263.79 -247.51,-1879.87 -28.04,-369.84 -40.1,-1236.94 -68.06,-1969.29 -2.59,-67.9 -94.5,40.56 -94.5,40.56 0,0 83.29,-306.65 81.72,-339.11 -20.31,-419.56 -48.33,-754.57 -91.45,-857.981 -147.66,-324.61 -4750.02,233.821 -5291.48,410.881 0,0 -39.84,314.65 -95.09,817.77 -1.49,13.52 177.81,-5.35 176.3,8.44 0,0 -186.02,80.45 -188.67,105 -148.33,1370.22 -387.67,3938.3 -295.81,5524.1 1.56,27.03 94.48,-89.1 94.48,-89.1 0,0 -85.31,229.81 -83.02,259.46 21.63,280.08 55.18,523.66 103.33,716.84 z" />
    </clipPath>
    <clipPath
       id="clipPath3993"
       clipPathUnits="userSpaceOnUse">
      <path
         id="path3995"
         d="M 0,10581.9 0,0 l 8706.98,0 0,10581.9 -8706.98,0 z" />
    </clipPath>
  </defs>
  <sodipodi:namedview
     id="base"
     pagecolor="#ffffff"
     bordercolor="#666666"
     borderopacity="1.0"
     inkscape:pageopacity="0.0"
     inkscape:pageshadow="2"
     inkscape:zoom="1.540463"
     inkscape:cx="138.28475"
     inkscape:cy="137.2574"
     inkscape:document-units="mm"
     inkscape:current-layer="layer1"
     inkscape:window-width="1280"
     inkscape:window-height="748"
     inkscape:window-x="-2"
     inkscape:window-y="25"
     width="12.8cm"
     height="9.6cm"
     units="cm"
     showgrid="true"
     grid_units="mm"
     inkscape:object-paths="false"
     inkscape:grid-points="true"
     inkscape:grid-bbox="true"
     inkscape:guide-points="true"
     showguides="true"
     inkscape:guide-bbox="true"
     inkscape:window-maximized="0">
    <sodipodi:guide
       orientation="vertical"
       position="56.476527"
       id="guide3573" />
    <sodipodi:guide
       orientation="horizontal"
       position="11.035643"
       id="guide3579" />
    <sodipodi:guide
       orientation="horizontal"
       position="24.018753"
       id="guide3886" />
    <sodipodi:guide
       orientation="horizontal"
       position="285.62841"
       id="guide3988" />
    <sodipodi:guide
       orientation="horizontal"
       position="303.15561"
       id="guide4081" />
    <inkscape:grid
       id="GridFromPre046Settings"
       type="xygrid"
       originx="0px"
       originy="0px"
       spacingx="2mm"
       spacingy="2mm"
       color="#3f3fff"
       empcolor="#3f3fff"
       opacity="0.15"
       empopacity="0.38"
       empspacing="5" />
  </sodipodi:namedview>
  <metadata
     id="metadata7">
    <rdf:RDF>
      <cc:Work
         rdf:about="">
        <dc:format>image/svg+xml</dc:format>
        <dc:type
           rdf:resource="http://purl.org/dc/dcmitype/StillImage" />
        <dc:title />
      </cc:Work>
    </rdf:RDF>
  </metadata>
  <g
     inkscape:label="Layer 1"
     inkscape:groupmode="layer"
     id="layer1"
     transform="translate(4.149475e-6,-698.0315)">
    <g
       transform="matrix(0.15872023,0,0,-0.15872023,311.81102,1029.8933)"
       inkscape:label="ink_ext_XXXXXX"
       id="g3985">
      <g
         transform="scale(0.1,0.1)"
         id="g3987">
        <g
           id="g3989">
          <g
             clip-path="url(#clipPath3993)"
             id="g3991">
            <path
               id="path3997"
               style="fill:#c8cac8;fill-opacity:1;fill-rule:nonzero;stroke:none"
               d="m 2001.99,8658.2 c 50,200.63 411.54,153.08 411.54,153.08 9.34,189.73 -81.33,570.13 -60.54,770.11 11.02,106.07 66.37,217.61 158.99,321.78 343.68,386.53 1230.58,590.23 1378.24,590.23 98.45,0 98.45,-147.6 172.28,-118.1 0,0 172.29,118.1 246.12,147.6 393.79,88.5 762.96,59 1156.75,29.5 319.94,-29.5 713.73,59 1009.06,-59 101.63,-61 168.29,-135.9 240.09,-195.9 21.62,-18.1 -22.84,-125.6 -22.84,-125.6 0,0 114.45,62 127.31,55.9 17.68,-15.9 41.7,-29.9 69.65,-42.5 127.73,-57.6 337.4,-86.2 397.98,-134.6 172.28,-118.02 443.01,-855.78 541.45,-1121.37 20.82,-54.92 -70.65,-268.49 -70.65,-268.49 0,0 161.99,108.5 174.26,71.06 76.73,-234.22 131.86,-552.26 167.12,-805.92 57.93,-611.37 6.75,-1229.28 -73.92,-1844.5 -4.47,-34.09 -93.2,-139.58 -93.2,-139.58 0,0 73.25,-8.49 70.07,-31.4 -88.11,-633.8 -199.72,-1263.79 -247.51,-1879.87 -28.04,-369.84 -40.1,-1236.94 -68.06,-1969.29 -2.59,-67.9 -94.5,40.56 -94.5,40.56 0,0 83.29,-306.65 81.72,-339.11 -20.31,-419.56 -48.33,-754.57 -91.45,-857.981 -147.66,-324.61 -4750.02,233.821 -5291.48,410.881 0,0 -39.84,314.65 -95.09,817.77 -1.49,13.52 177.81,-5.35 176.3,8.44 0,0 -186.02,80.45 -188.67,105 -148.33,1370.22 -387.67,3938.3 -295.81,5524.1 1.56,27.03 94.48,-89.1 94.48,-89.1 0,0 -85.31,229.81 -83.02,259.46 21.63,280.08 55.18,523.66 103.33,716.84"
               inkscape:connector-curvature="0" />
          </g>
        </g>
        <g
           id="g3999">
          <g
             clip-path="url(#clipPath4003)"
             id="g4001">
            <path
               id="path4007"
               style="fill:#434547;fill-opacity:1;fill-rule:nonzero;stroke:none"
               d="m 7306.05,8461.58 c -123.06,-141.03 -265.1,-347.55 -265.1,-347.55 117.4,87.87 288.45,156.72 288.45,156.72 43.88,-64.26 -67.39,-422.54 -92,-521.26 -29.78,-109.24 94.7,-700.77 60.1,-783.26 -1.08,-2.6 27.59,-861.28 10.63,-903.92 0,0 -72.52,691.71 -83.11,666.26 -33.61,-80.78 -179.82,-361.93 -187.57,-347.6 0,0 179.26,649.34 167.57,674.26 -57.8,123.13 -49.29,390.62 -60,366.67 -90.7,-202.91 -227.58,-446.37 -227.58,-772.43 0,-676.93 -40.62,-1053.96 -163.68,-1730.92 -123.08,-676.92 -47.69,-1248.19 -121.5,-1925.12 -24.62,-282.07 -222.05,-724 -207.05,-1364.55 24.04,258.16 60.88,437.55 101.6,589.77 5.34,19.95 109.42,-420.1 114.87,-400.96 5.61,19.72 -87.4,498.6 -81.71,517.7 62.58,210.03 128.46,390.4 168.32,710.15 44.81,359.47 57.45,883.7 107.61,1223.29 4.95,33.44 165.29,-916.93 171.91,-881.51 11.2,54.58 -57.93,1158.08 -44.18,1216.43 106.97,454.19 364.51,822.54 364.51,822.54 -0.3,-95.02 -51.26,-976.25 -65.86,-2039.01 -3.39,-246.09 25.7,-727.86 25.7,-727.86 -2.5,-35.13 -45.99,-169.9 -107.88,-355.92 l -100.3,178.89 27.66,823.71 -103.24,-688.93 -100.22,178.71 c 0,0 172.75,-855.52 171.53,-914.69 -2.27,-109.18 -63.9,-211.04 -133.85,-219.29 -150.8,-17.77 -355.69,-75.64 -610.56,-67.75 -24.64,0.76 30.56,107.75 30.56,107.75 0,0 -604.89,-72.6 -723.69,-53.47 -34.15,5.5 33.69,105.66 33.69,105.66 0,0 -396.26,-44.36 -464.95,-37.36 -59.61,6.08 -299.85,25.79 -360.71,30.93 -249.05,21.03 -517.8,49.95 -821.51,129.28 -65.42,17.08 -342.99,115.82 -704.55,66.39 -76.74,-10.5 -305.63,-126.66 -382.87,-125.64 -43.3,0.58 137.54,90.72 95.99,91.36 -238.4,3.61 -438.55,8.7 -488.45,20.96 l 1164.5,115.48 c -287.78,17.62 -874.97,218.14 -1135.86,310.96 -66.93,23.81 -61.59,415.45 -61.59,415.45 -7.88,39.34 -142.22,-269.46 -149.84,-230.01 -423.41,2189.59 -380.16,4270.01 -376.76,4961.8 l 156.6,-621.79 c 16.88,176.59 -81.98,547.71 -90,900 -7.08,310.85 80,730 80,730 59.2,131.11 269.3,105.51 308.71,53.95 59.11,-77.35 112.41,-205.88 170.03,-590.71 0,0 18.22,163.72 24.62,394.88 125.48,-121.36 208.52,-435.56 208.52,-435.56 15.06,-160.59 -24.02,-324.44 -11.63,-551.64 8.26,75.74 59.05,526.24 83.43,557.43 43.67,55.87 143.6,150.61 211.91,260.54 l -228.48,-173.65 c -42.97,58.73 -203.21,471.96 -204.08,596.11 -0.99,141.59 165.42,348.07 165.42,348.07 0,0 152.09,-144.3 217.91,-206.43 0,0 -123.05,197.45 -196.89,310.27 0,28.2 92.44,4.29 117.05,4.29 -73.83,56.41 -137.13,61.79 -186.35,61.79 4.53,-46.73 24.01,-63.37 15.14,-100.4 l -123.34,-154.48 c -82.49,-1.92 -174.98,252.83 -216.28,499.06 -69.12,412.08 280.29,653.48 600.24,766.28 147.67,56.4 573.89,169.9 721.56,113.5 101.93,-41.7 154.94,-125.8 139.53,-178.8 -25.67,-88.47 -160.8,-147.13 -160.8,-147.13 -17.16,-55.97 -27.3,-206.29 3.88,-271.79 7.96,60.82 30.3,133 48.53,176.86 8.11,19.51 140.97,-27.31 140.97,-27.31 0,0 -111.31,83.81 -98.08,97.99 45.86,49.18 111.17,77.7 153.3,52.61 117.61,-70.01 191.72,-394.23 149.06,-638.62 73.84,141.03 82.91,406.93 16.63,569.11 49.23,0 254.05,-46.33 254.05,-46.33 -98.45,84.61 -270.68,125.94 -369.13,238.81 246.11,394.8 963.94,152.1 1308.5,123.9 106.72,-17.5 742.19,-13.6 992.35,-100.2 108.87,-37.7 84.56,-221.6 23.38,-308.85 68.45,42.96 213.3,182.21 277.44,170.5 448.94,-81.95 768.01,-1341.62 617.27,-1514.37 z m 1235.76,172.65 C 8517.2,9696.59 8394.14,10109.7 7729.63,10759 6720.56,11732.8 1306.01,11555.7 1084.51,10168.8 986.062,9490.02 1552.12,1138.63 1675.19,991.07 1847.47,784.5 7729.63,-159.801 7951.13,17.1992 8123.41,164.801 8591.04,6804.6 8541.81,8634.23"
               inkscape:connector-curvature="0" />
          </g>
        </g>
        <g
           id="g4009">
          <g
             clip-path="url(#clipPath4013)"
             id="g4011">
            <path
               id="path4017"
               style="fill:#31452c;fill-opacity:1;fill-rule:nonzero;stroke:none"
               d="m 341.422,1416.76 c 0,0 413.91,57.87 733.668,-30.45 -58.11,154.56 -71.5,204.55 -71.5,204.55 203.4,-44.15 379.42,-67.63 553.76,-200.11 58.1,198.72 253.08,250.32 369.31,426.94 87.16,-220.79 33.43,-217.15 55.58,-303.71 255.79,46.31 303.43,127.61 310.02,190.97 29.04,-44.16 103.17,-168.97 84.8,-260.04 175.61,88.88 184.55,157.78 242.67,312.32 225.32,-89.24 275.59,-268.08 275.59,-268.08 29.51,90.83 261.95,150.23 445.95,163.43 0,-26.31 -87.16,-145.2 -32.36,-207.98 0,0 74.3,135.38 555.31,267.4 -164.65,-220.01 -22.61,-250.81 -22.61,-250.81 198.51,59.36 369.1,184.85 681.12,211.2 -174.32,-66.23 -65.13,-145.35 -181.35,-255.76 220.09,123.76 669.92,216.4 669.92,216.4 -130.71,-98.98 -80.8,-225.5 -80.8,-225.5 89.5,112.04 364.96,139.47 618.75,258.27 -75.95,-130.8 -41.94,-235.35 -41.94,-235.35 151.19,69.22 481.66,136.18 765.73,158.19 0,0 -205.25,-116.34 -183.25,-225.78 232.45,132.46 624.78,177.53 813.75,160.37 0,0 -183.93,-109.14 -141.82,-192.18 204.6,116.16 735.99,152.34 735.99,152.34 -176.26,-61.8 -261.44,-184.15 -261.44,-184.15 0,0 333.31,119.79 897.47,76.33 0,0 -220.84,-41.34 -303.8,-104.1 91.58,33.07 360.38,25.22 679.97,-129.35 -277.93,-31.85 -333.32,-49.52 -333.32,-49.52 65.02,12.26 192.23,-31.63 525.69,-197.182 -203.39,0 -382.92,-32.27 -389.99,-92.258 0,0 103.36,-79.48 394.69,-12.691 -235.25,-161.278 -381.97,-241.27 -381.97,-241.27 90.74,-51.597 304.82,-6.801 304.82,-6.801 C 8513.63,450 8338.39,390.301 8103.71,358.5 c 0,0 80.57,-40.902 273.32,-41.301 0,0 -155.45,-125.601 -332.57,-137.301 0,0 15.21,-54.699 192.61,-90.4996 0,0 -461,-74.7968 -1024.73,-30.7968 -44.86,3.5976 -232.93,93.7964 -280,93.9964 -28,0.101 84.71,-86.4964 56.77,-92.7972 -198.56,-45.1992 -404.17,-45.1992 -716.25,3.3008 -39.28,6.0976 -214.68,96.1994 -255.14,96.2964 -23.54,0.102 87.48,-93.6988 63.78,-95.4996 -538.8,-41.3984 -1155.65,-123.5976 -1893.06,6.5 -27.92,4.9024 49.65,55.4026 21.33,55.4996 0,0 -158.73,-51.2964 -184.39,-55.0972 -326.11,-48.3008 -738.39,1.3984 -1081.42,1.5 -35.67,0 95.93,87.0972 95.93,87.0972 -50.11,0 -289.82,-72.9996 -389.95,-87.0972 -343.34,-48.4024 -593.48,-0.7031 -872.07,-2 -17.9,-0.1016 106.46,55.5972 88.91,55.5972 -21.54,-0.199 -184.89,-56.0972 -205.88,-56.1988 -511.95,-2.8008 -858.439,-8.1015 -922.97,-17 148.144,67.1018 438.87,97.8008 438.87,97.8008 0,0 -201.972,53.301 -650.316,-53.3008 C 516.797,183 853.02,307.801 853.02,307.801 c 0,0 -303.043,-64.301 -765.8677,38.301 C 445.703,372.199 513.77,428 668.441,510.801 c 0,0 -308.152,-6.301 -668.441,251.097 215.035,-9.918 256.516,1.043 459.895,45.204 0,0 -260.223,194.908 -372.5005,350.488 296.2775,-90.4 543.3435,4.26 543.3435,4.26 -53.437,94.62 -112.039,188.56 -289.316,254.91"
               inkscape:connector-curvature="0" />
            <path
               id="path4019"
               style="fill:#547244;fill-opacity:1;fill-rule:nonzero;stroke:none"
               d="m 451.305,1393.6 c 0,0 454.558,-23.36 764.855,-108.46 -56.39,148.93 -148.29,250.37 -148.29,250.37 197.36,-42.56 421.74,-159.7 590.92,-287.35 -13.68,182.31 145.73,335.72 258.52,505.93 84.58,-212.77 -23,-299.25 -1.51,-382.64 248.21,44.61 396.19,212.94 402.58,274 28.19,-42.55 -49.1,-321.87 -66.93,-409.61 170.42,85.62 379.24,206.69 384.76,476.8 210.78,-58.94 250.54,-476.8 250.54,-476.8 28.63,87.49 233.44,375.05 411.99,387.79 0,-25.36 -197.81,-252.18 -26.47,-424.79 0,0 57.77,335.74 524.54,462.93 -98.68,-222.58 -53.35,-413.61 -53.35,-413.61 57.11,123.29 437.52,346.84 678.28,384.99 -108.07,-95.4 -128.85,-228.81 -335.6,-397.31 213.58,119.23 838.36,362.33 838.36,362.33 -98.66,-108.13 -124.43,-423.98 -124.43,-423.98 86.85,107.97 432.62,319.05 678.88,433.52 -73.71,-126.03 -222.49,-522.77 -222.49,-522.77 142.79,147.95 535.67,366.19 811.33,387.36 0,0 -221.1,-110.05 -205.15,-448.99 137.37,262.61 645.3,422.96 828.66,406.42 0,0 -247.38,-311.01 -206.53,-391.01 -11.06,-11.67 208.95,211.04 741.75,330.1 -386.32,-86.32 -358.91,-345.51 -358.91,-345.51 0,0 368.66,275.93 809.41,269.28 0,0 -305.07,-140.2 -305.07,-256.62 48.45,40.42 271.74,236.98 751.68,138.66 -374.26,-31.02 -522.23,-166.73 -522.23,-166.73 122.38,42.33 489.22,86.84 812.8,-72.701 -197.38,0 -614.52,-72.121 -621.39,-129.89 0,0 355,-117.989 677.25,-64.348 C 8241.78,585.559 7776.87,591.91 7776.87,591.91 c 88.07,-49.711 580.61,-103.711 580.61,-103.711 -112.77,-89 -496.44,-81.301 -724.18,-112 0,0 324.32,-71.898 511.38,-72.301 0,0 -503.32,-171.796 -953.53,-137.699 C 7074.12,175 6627.49,330.602 6627.49,330.602 L 6808.28,166 c 0,0 -379.32,-47.602 -595.56,-0.301 -110.81,24.199 -521.13,164.903 -521.13,164.903 l 191.44,-143.801 c 0,0 -971.36,-212.1994 -1529.53,-10.203 -50.99,18.402 242.67,184.902 242.67,184.902 0,0 -242.67,-143.801 -540.03,-192.199 -320.72,-52.199 -885.08,17.5 -885.08,17.5 l 350.96,164.398 c 0,0 -573.9,-132.5 -712.56,-164.398 -265.87,-60.903 -829.53,0 -829.53,0 L 2277.71,361.5 1660.83,164.301 1444.61,163.102 c 0,0 -368.67,160.699 -852.348,-37.204 -9.391,82.602 666.728,308.5 666.728,308.5 0,0 -595.205,-178.597 -1080.443,-98.398 347.937,25.199 716.18,154.199 866.263,234 0,0 -601.205,-81.398 -950.8373,166.691 208.6683,-9.562 467.9143,-48.929 665.2733,-6.371 0,0 -471.512,237.739 -580.469,387.66 222.411,-67.82 623.301,-56.87 623.301,-56.87 -51.848,91.16 -178.742,268.55 -350.773,332.49"
               inkscape:connector-curvature="0" />
            <path
               id="path4021"
               style="fill:#434547;fill-opacity:1;fill-rule:nonzero;stroke:none"
               d="m 5396.68,7081.9 c 0,0 435,35 435,-143.33 0,-57.97 -75.03,-83.26 -179.98,-87.33 -1.36,-0.05 -5.37,-2.63 -10.88,-6.67 -3.23,-2.38 53.36,-110.17 53.36,-110.17 0,0 -76.3,92.14 -82.45,87.07 -17.94,-14.8 -35.05,-29.57 -35.05,-29.57 0,0 43.41,58.73 37.5,58.76 -29.72,0.18 -61.19,1.78 -93.56,4.58 0,0 1.51,127.86 2.05,186.79 0.15,16.87 -125.93,38.92 -125.99,39.87 z m 121.67,-477.5 c 76.16,-0.88 160.65,2.34 218.33,7.5 l -10,-225 c 1.76,0.27 25,117.5 25,117.5 l 60,-42.5 c 0,0 -56,52.37 -53.16,68.08 l 6.49,75.26 c 45.78,6.94 98.52,16.22 132.43,29.06 7.81,2.96 44.28,51.85 80.46,100.88 3.12,4.22 -48.72,136.72 -48.72,136.72 0,0 64.4,-115.45 67.53,-111.21 29.03,39.33 54.44,73.3 59.97,76.21 11.51,6.05 -93.53,-170.63 -83.55,-163.81 77.98,53.3 110.95,129.25 125.78,215.05 28.5,165.04 -56.3,274.57 -117.23,328.76 -6.95,6.18 -25,-127.5 -25,-127.5 0,0 -8.17,102.62 -14.54,139.83 -0.64,3.7 17.23,33.25 36.18,63.53 4.15,6.63 66.69,-27.52 66.69,-27.52 l 59.58,65 -67.92,-51.67 -65.31,47.34 c 0,0 -52.76,-75.79 -57.59,-74.19 -141.86,47.16 -424.98,53.45 -622.17,51.29 -4.7,-0.06 -41.39,59.93 -75.56,117.58 -3.81,6.45 45.64,67.98 45.64,67.98 0,0 -63.01,-38.51 -65.93,-33.53 -22.85,39.01 -40.74,70.19 -40.74,70.19 0,0 94.32,-222.82 86.73,-222.96 -97.25,-1.83 -163.68,-5.29 -163.68,-5.29 -1.22,-2.05 149.47,-25.95 156.95,-35.08 4.2,-5.11 -136.83,6.15 -131.3,0 13.41,-14.91 29.26,-31.6 40.4,-43.99 15.26,-16.95 447.07,-31.01 447.07,-31.01 0,0 -333.55,-3.55 -417.46,-14.64 -11.98,-1.59 -95.76,-3.46 -95.86,-5.36 0,0 76.34,-11.35 76.08,-17.49 -10.65,-245.43 -11.63,-907.13 -11.63,-907.13 0,0 43.95,584.56 44.37,574.62 0.7,-16.61 -15,-670 -38.33,-738.52 -7.75,-22.77 -70,-73.15 -70,-73.15 l -33.55,-107.71 c 1.36,-0.05 16.1,37.68 26.77,53.63 1.7,2.54 47.61,-29.25 47.61,-29.25 l -36.64,45.66 c 0,0 24.62,36.51 26.53,36.44 87.58,-3.32 342.81,-11.68 508.06,-3.45 l -101.47,75.68 -196.48,-21.83 c 0,0 118.44,41.35 161.09,58.92 9.33,3.83 88.91,18.58 88.91,18.58 0,0 -7.62,2.22 -17.87,5.8 -2.1,0.73 10.61,17 26.84,37.05 2.88,3.55 133.53,-87.85 133.53,-87.85 0,0 -116.78,108.43 -112.85,113.25 21.18,26.02 40.78,50.55 37.85,51.75 -0.76,0.31 -45.45,28.34 -45.45,28.34 l 28.78,-33.34 c -33.24,-30.11 -96.44,-98.23 -99.28,-96.85 -12.78,6.22 -23.01,13.2 -22.61,19.56 7.45,121.82 20.55,286.37 20.23,434.79"
               inkscape:connector-curvature="0" />
            <path
               id="path4023"
               style="fill:#434547;fill-opacity:1;fill-rule:nonzero;stroke:none"
               d="m 4189.18,5997.04 c -2.89,4.54 96.09,50.47 104.63,60.19 15.49,17.6 39.61,40.77 35.62,58.95 -47.18,214.58 -34.57,751.17 -22.92,975.52 0.57,10.9 49.63,-878.81 50.17,-869.8 0.56,9.26 -5.23,297.29 -10.71,562.59 -0.15,7.48 90.71,-95.09 90.71,-95.09 0,0 -91.56,135.88 -91.75,145.01 -3.62,174.08 -6.91,329.62 -7.93,377.44 l 99.68,-4.95 -113.93,32.69 -60.51,55.14 -90.56,37.17 5,-55 -46.67,23.33 38.33,-8.33 -11.66,53.37 c 1.33,0.62 103.8,-31.94 109.31,-30.54 49.87,12.65 153.5,17 258.21,15.02 2.98,-0.06 21.82,21.9 41.72,46.18 3.29,4.02 -59.24,63.47 -59.24,63.47 0,0 75.08,-43.95 77.96,-40.37 17.55,21.83 32.04,40.37 32.04,40.37 0,0 -55.82,-110.59 -47.53,-110.89 98.13,-3.55 190.49,-12.48 232.78,-25.14 l -47.77,-52.08 39.19,-104.39 -59.98,94.67 -208.79,-14.67 c 0.33,-2.53 32.86,-6.45 71.75,-10.73 3.94,-0.43 -17.27,-18.3 -37.69,-34.71 -17.52,-14.07 -34.46,-27.06 -34.46,-27.06 0,0 20.13,10.34 43.93,22.19 3.93,1.96 36.07,-204.69 36.07,-204.69 0,0 -12.59,216.25 -6.99,218.95 23.17,11.16 43.74,20.46 47.16,20.08 43.53,-4.82 82.33,-9.59 82.67,-12.99 17.18,-169.11 25.7,-669.58 2.51,-950.65 -0.71,-8.7 72.4,-97.89 72.4,-97.89 l -77.75,65 c -2.57,-22.06 -6.12,-70.96 -9.26,-88.29 0,0 -86.38,204.25 -94.27,198.41 -5.12,-3.81 22.55,-134.67 33.8,-215.23 4.86,-34.78 45.62,-182.09 40.38,-183.85 l -30.95,43.76 -109.7,-64.8 92.07,89.72 -29.73,42.01 c -76.61,-18.67 -255.74,-7.21 -314.92,-2.74 -3.1,0.24 -21.91,-9.71 -33.25,-13.15 l 18.33,-145.84 c 0,0 -39.96,143.22 -45.46,141.31 -26.73,-9.25 -52.04,-18.67 -52.04,-18.67"
               inkscape:connector-curvature="0" />
            <path
               id="path4025"
               style="fill:#434547;fill-opacity:1;fill-rule:nonzero;stroke:none"
               d="m 3439.11,7086.09 c -0.29,4.52 49.6,7.46 91.64,5.42 18.73,-0.91 -15.74,-86.28 -15.74,-86.28 l 33.33,50 c 4.35,3.88 56.46,-74.58 60.84,-70.83 0,0 -47.24,79.96 -44.17,82.49 0,0 36.35,12.9 40.03,11.94 67.54,-17.46 129.19,-53.91 125.52,-124.39 -0.88,-16.74 -7.01,-30.76 -16.99,-42.48 -2.31,-2.71 24.77,-68.4 24.77,-68.4 0,0 -36.73,56.76 -39.12,54.93 -61.12,-46.7 -194.86,-45.99 -250.88,-43.27 l -21.66,-113.32 c 0,0 6.67,178.37 10.24,278.32 0.13,3.42 -72.02,-46.56 -71.91,-43.33 0.13,3.45 72.5,60.09 72.62,63.3 0.95,27.1 1.54,44.94 1.48,45.9 z m 269.64,-410.44 c 5.49,0.05 -7.07,49.58 -7.07,49.58 0,0 4.91,-7.46 11.14,-16.52 1.77,-2.57 48.63,40.88 50.53,38.19 1.62,-2.3 -41.72,-50.75 -40.11,-52.96 6.88,-9.47 13.18,-17.38 14.94,-17.27 69.48,4.18 121.46,20.66 160.29,45.24 2.51,1.59 19.01,-28.58 35.47,-58.76 2.51,-4.6 -39.76,-89.01 -39.76,-89.01 2.23,-4.07 50.83,72.76 50.83,72.76 10.85,-19.55 22.54,-43.72 24.17,-42.5 0,0 -42.72,138.28 -36.66,144.1 52.41,50.27 70.48,120.09 75.81,188.39 l -16.97,-11.93 7.82,27.56 -19.77,-35.96 -32.73,-23 c 0,0 63.54,103.88 63.32,110 -3.91,108.65 -49.57,212.1 -134.67,264.79 -12.51,7.74 -35.6,17.82 -51.15,24.17 l 12.5,-105.62 c 0,0 -10.2,30.2 -15,39.98 l -26.67,-48.32 c 2.54,6.67 16.8,58.35 13.19,65.24 -10.83,20.62 -22.77,42.04 -32,55.13 -5.03,7.14 154.53,84.77 151.73,85.47 -0.84,0.21 -18.78,-7.21 -42.77,-17.32 -3.08,-1.3 -37.73,79.94 -40.98,78.57 -1.66,-0.7 31.69,-81.16 30,-81.88 -49.28,-20.85 -116.24,-50.83 -117.85,-50.45 -104.86,24.77 -241.19,32.21 -369.65,31.94 -7.26,-0.02 102.2,-28.31 95,-28.37 -3.33,-0.03 -25.02,4.39 -50.49,9.71 -1.4,0.3 -28.68,-22.2 -28.68,-22.2 0,0 19.7,24.09 17.29,24.59 -36.09,7.59 -75.29,15.92 -79.8,15.84 -146.21,-2.33 -262.94,-12.3 -313.39,-17.16 -8.28,-0.8 -86.6,105.06 -86.6,105.06 l 54.17,6.67 -66.68,0 -34.15,11.67 32.11,-17.19 31.14,-45.36 -52.42,23.38 61.02,-35.93 42.93,-62.55 -55.62,-90.69 c 1.23,-1.07 63.39,80.77 64.67,79.63 12.65,-11.29 27.82,-25.5 40.12,-39.04 14.08,-15.51 495.93,-3.11 494.38,-11.42 -0.2,-1.07 -460,-20 -460,-20 5.93,-159.97 32.87,-974.61 25,-965 l -6.47,105.65 -29.6,-47.87 7.94,-22.78 -14.37,-13.13 10,14.38 -6.52,16.34 -9.73,-8.84 41.1,81.24 -43.68,714.68 c -8.99,-81.19 -11.06,-148.5 -14.82,-275.04 -0.38,-12.78 -45.91,-161.7 -70.37,-247.41 l 32.77,-12.21 -47.92,-46.68 57.92,46.68 -27.95,20.93 c 23.83,60.69 53.18,137.82 52.99,125.89 -2.88,-181.62 -0.35,-379.14 8.57,-546.92 1.67,-31.43 -91.53,-86.58 -91.53,-86.58 0,0 163.94,-15.39 239.71,-19.14 2.58,-0.13 46.96,-35.86 46.96,-35.86 l -113.33,-231.66 103.33,176.88 c 10.82,-30.48 26.66,-76.8 30,-76.88 0,0 -9.45,58.13 -10,86.66 0,0 13.98,79.99 21.27,80.32 52.22,2.37 125.01,7.07 163.73,21.35 0,0 -17.2,12 -28.05,27.95 -2.47,3.64 -35.15,7.67 -33.62,3.72 0,0 24.58,17.83 25.13,22.96 8.07,74.87 21.63,235.46 9.35,384.06 -0.34,4.06 -9.96,44.17 -17.79,77.23 -5.28,22.27 -9.75,41.36 -10.02,44.08 1.95,-4.41 9.09,-29.02 16.8,-55.89 0.77,-2.7 47.42,58.62 48.2,55.89 0.86,-3.02 -44.14,-70.1 -43.28,-73.11 7.97,-27.8 15.49,-53.95 17.56,-58.92 26.43,-63.59 59.74,-140.58 90.57,-214.11 2.82,-6.72 22.38,122.79 25.15,116.14 1.73,-4.15 -13.32,-144.47 -11.62,-148.58 25.46,-61.43 48.11,-118.54 62.2,-160.92 7.59,-22.81 -49.93,-25.55 -38.91,-35.5 0,0 258.81,-31.86 393.33,-8.33 l 90.24,-110 26.01,57.08 27.5,-37.5 -23.75,56.25 -32.5,-60 -52.64,104.45 c -5.86,33.02 8.3,42 5.14,53.05 -22.54,78.81 -121.59,231.38 -176.83,356.52 -1.5,3.39 8.48,-131.54 6.83,-128.19 -1.65,3.36 -15.03,144.96 -16.72,148.34 -27.05,54.41 -58.8,112.05 -96.21,172.08"
               inkscape:connector-curvature="0" />
          </g>
        </g>
      </g>
    </g>
    <text
       xml:space="preserve"
       style="font-size:14.23932457px;font-style:normal;font-variant:normal;font-weight:bold;font-stretch:normal;text-align:start;line-height:125%;letter-spacing:0px;word-spacing:0px;writing-mode:lr-tb;text-anchor:start;fill:#434547;fill-opacity:1;stroke:none;font-family:'ヒラギノ丸ゴ Pro';-inkscape-font-specification:'ヒラギノ丸ゴ Pro Bold'"
       x="350.37561"
       y="960.29523"
       id="text4096"
       sodipodi:linespacing="125%"><tspan
         sodipodi:role="line"
         id="tspan4098"
         x="350.37561"
         y="960.29523"
         style="font-size:18.25550842px">SLAMD</tspan></text>
  </g>
</svg>
